<?xml version="1.0" encoding="UTF-8" standalone="no"?>
<!-- Created with Inkscape (http://www.inkscape.org/) -->

<svg
   width="60.825012mm"
   height="56.234814mm"
   viewBox="0 0 60.825012 56.234814"
   version="1.1"
   id="svg1"
   inkscape:version="1.4 (1:1.4+202410161351+e7c3feb100)"
   sodipodi:docname="lmc_spot_light2.svg"
   xmlns:inkscape="http://www.inkscape.org/namespaces/inkscape"
   xmlns:sodipodi="http://sodipodi.sourceforge.net/DTD/sodipodi-0.dtd"
   xmlns="http://www.w3.org/2000/svg"
   xmlns:svg="http://www.w3.org/2000/svg">
  <sodipodi:namedview
     id="namedview1"
     pagecolor="#ffffff"
     bordercolor="#000000"
     borderopacity="0.25"
     inkscape:showpageshadow="2"
     inkscape:pageopacity="0.0"
     inkscape:pagecheckerboard="0"
     inkscape:deskcolor="#d1d1d1"
     inkscape:document-units="mm"
     inkscape:zoom="1.2840389"
     inkscape:cx="20.638004"
     inkscape:cy="184.96325"
     inkscape:window-width="1920"
     inkscape:window-height="1021"
     inkscape:window-x="0"
     inkscape:window-y="0"
     inkscape:window-maximized="1"
     inkscape:current-layer="layer1" />
  <defs
     id="defs1" />
  <g
     inkscape:label="Layer 1"
     inkscape:groupmode="layer"
     id="layer1"
     transform="translate(-8.7393176,-7.8119768)">
    <path
       id="text51"
       style="font-size:24.8012px;line-height:0.9;font-family:NATS;-inkscape-font-specification:NATS;text-align:center;letter-spacing:0px;text-anchor:middle;stroke-width:0.499999;paint-order:markers fill stroke"
       d="M 40.929601 7.8119768 C 38.901186 7.8119768 37.171042 8.5107587 35.73922 9.9084897 C 34.324444 11.289175 33.617386 13.011044 33.617386 15.073549 C 33.617386 17.101964 34.341512 18.806247 35.79038 20.186932 C 37.239247 21.567617 38.952323 22.258123 40.929601 22.258123 C 42.190967 22.258123 43.367156 21.95968 44.458068 21.363088 C 45.702389 20.647177 46.699614 19.607538 47.449616 18.243898 L 45.711221 18.243898 C 45.097583 19.079128 44.37294 19.726703 43.53771 20.186932 C 42.719526 20.647161 41.850057 20.877329 40.929601 20.877329 C 39.429597 20.877329 38.091515 20.306304 36.915376 19.164255 C 35.756282 18.005161 35.17698 16.641735 35.17698 15.073549 C 35.17698 13.522409 35.739213 12.167258 36.864216 11.008164 C 37.989219 9.8320246 39.336093 9.2439307 40.904279 9.2439307 C 41.603145 9.2439307 42.310203 9.3799633 43.026114 9.6526913 C 44.117026 10.061784 44.995287 10.761082 45.660061 11.749721 L 47.373135 11.749721 C 46.998134 10.812218 46.290559 9.9680942 45.250784 9.2180925 C 43.972371 8.2805901 42.531877 7.8119768 40.929601 7.8119768 z M 8.7393176 8.0419369 L 8.7393176 22.028163 L 16.026211 22.028163 L 16.026211 20.621531 L 10.298912 20.621531 L 10.298912 8.0419369 L 8.7393176 8.0419369 z M 17.202367 8.0419369 L 17.202367 22.028163 L 18.761962 22.028163 L 18.7878 10.061969 L 23.773542 22.028163 L 25.077338 22.028163 L 30.1654 10.087807 L 30.1654 22.028163 L 31.724995 22.028163 L 31.724995 8.0419369 L 29.423843 8.0419369 L 24.463939 19.675852 L 19.478197 8.0419369 L 17.202367 8.0419369 z M 17.318639 29.647853 C 16.159545 29.647853 15.20525 30.014572 14.455248 30.747528 C 13.705246 31.463439 13.330252 32.375321 13.330252 33.483278 C 13.330252 34.710554 13.77352 35.639505 14.659886 36.270188 C 15.086024 36.577007 15.853081 36.89252 16.961038 37.216384 C 17.847404 37.472066 18.486187 37.727579 18.878234 37.983262 C 19.61119 38.494626 19.977908 39.193409 19.977908 40.079775 C 19.977908 40.863867 19.705326 41.511443 19.15987 42.022809 C 18.63146 42.517128 18.017504 42.764365 17.318639 42.764365 C 16.48341 42.764365 15.801696 42.508852 15.273286 41.997487 C 14.76192 41.486122 14.506407 40.78734 14.506407 39.900974 L 12.946813 39.900974 C 12.946813 41.366888 13.44077 42.483076 14.42941 43.250124 C 15.230548 43.846716 16.193636 44.14516 17.318639 44.14516 C 18.545915 44.14516 19.560209 43.744821 20.361347 42.943683 C 21.162486 42.125499 21.563341 41.153618 21.563341 40.028615 C 21.563341 39.057021 21.264898 38.213414 20.668305 37.497503 C 20.088759 36.764547 19.236359 36.253003 18.111355 35.96323 C 16.935216 35.605275 16.168159 35.307348 15.810204 35.068711 C 15.196566 34.69371 14.889847 34.148029 14.889847 33.432118 C 14.889847 32.801434 15.102947 32.255754 15.529084 31.795526 C 15.972267 31.335297 16.568637 31.105645 17.318639 31.105645 C 17.932277 31.105645 18.477957 31.34409 18.955231 31.821364 C 19.432505 32.281593 19.67095 32.886756 19.67095 33.636757 L 21.205223 33.636757 C 21.205223 32.494709 20.838505 31.548689 20.105549 30.798687 C 19.372592 30.03164 18.443642 29.647853 17.318639 29.647853 z M 40.918232 29.647853 C 38.957999 29.647853 37.2532 30.329566 35.804332 31.693206 C 34.270238 33.107982 33.503181 34.881058 33.503181 37.011745 C 33.503181 38.989023 34.236617 40.676238 35.70253 42.073968 C 37.168443 43.454654 38.906863 44.14516 40.918232 44.14516 C 42.912555 44.14516 44.6427 43.454654 46.108613 42.073968 C 47.591572 40.676238 48.332766 38.954886 48.332766 36.909426 C 48.332766 34.881012 47.591572 33.167936 46.108613 31.770204 C 44.6427 30.355428 42.912555 29.647853 40.918232 29.647853 z M 23.148257 29.699013 L 23.148257 43.710561 L 24.707852 43.710561 L 24.707852 38.162062 L 27.086001 38.162062 C 28.040549 38.162062 28.773469 38.093788 29.284834 37.957424 C 29.813244 37.804014 30.281857 37.591431 30.690949 37.318703 C 31.253451 36.943702 31.687927 36.474572 31.994746 35.91207 C 32.301565 35.332523 32.455183 34.676672 32.455183 33.943715 C 32.455183 33.210759 32.301565 32.55439 31.994746 31.974843 C 31.704972 31.378251 31.270496 30.892569 30.690949 30.517568 C 30.281857 30.24484 29.804451 30.040016 29.258995 29.903652 C 28.713539 29.767288 27.989413 29.699013 27.086001 29.699013 L 23.148257 29.699013 z M 48.972004 29.92949 L 48.972004 31.335606 L 52.168191 31.335606 L 52.168191 43.915199 L 53.702465 43.915199 L 53.702465 31.335606 L 56.846975 31.335606 L 56.846975 29.92949 L 48.972004 29.92949 z M 40.918232 31.105645 C 42.503463 31.105645 43.86689 31.684947 45.008938 32.844041 C 46.168032 33.986089 46.74785 35.358308 46.74785 36.960585 C 46.74785 38.545817 46.168032 39.909243 45.008938 41.051292 C 43.86689 42.19334 42.503463 42.764365 40.918232 42.764365 C 39.315955 42.764365 37.93546 42.19334 36.776366 41.051292 C 35.634317 39.892198 35.063292 38.54584 35.063292 37.011745 C 35.063292 35.341286 35.642593 33.943722 36.801687 32.818719 C 37.960781 31.67667 39.333001 31.105645 40.918232 31.105645 z M 24.707852 31.130967 L 26.651403 31.130967 C 27.367314 31.130967 27.912478 31.156308 28.287478 31.207448 C 28.66248 31.241539 29.020405 31.343951 29.361315 31.514406 C 29.872679 31.753043 30.256466 32.085623 30.512149 32.511761 C 30.784877 32.937898 30.920909 33.415305 30.920909 33.943715 C 30.920909 34.472126 30.784877 34.940739 30.512149 35.349831 C 30.256466 35.758923 29.864403 36.099779 29.335993 36.372507 C 29.012129 36.54296 28.705409 36.645372 28.415636 36.679465 C 28.142908 36.713559 27.716708 36.730625 27.137161 36.730625 L 26.651403 36.730625 L 24.707852 36.730625 L 24.707852 31.130967 z M 40.953372 49.549481 C 38.771548 49.549481 36.973129 50.316538 35.558352 51.850632 C 34.160622 53.265409 33.46184 54.919003 33.46184 56.811053 C 33.46184 58.771286 34.194759 60.467293 35.660672 61.899115 C 37.126585 63.330937 38.89966 64.046787 40.97921 64.046787 C 42.83717 64.046787 44.49904 63.467486 45.964952 62.308392 C 47.584275 60.995889 48.393745 59.325226 48.393745 57.296812 L 38.805699 57.296812 L 38.805699 58.728766 L 46.476032 58.728766 C 46.254441 59.700359 45.666347 60.561035 44.711799 61.311037 C 43.603842 62.214448 42.376965 62.665993 41.03037 62.665993 C 39.308775 62.665993 37.860004 62.077899 36.683865 60.90176 C 35.575908 59.759711 35.021434 58.413353 35.021434 56.862213 C 35.021434 55.294027 35.592459 53.930084 36.734508 52.77099 C 37.876556 51.59485 39.291706 51.006756 40.97921 51.006756 C 42.018986 51.006756 43.016211 51.271062 43.970759 51.799473 C 44.788943 52.276747 45.402381 52.898978 45.811473 53.666025 L 47.626866 53.666025 C 47.251865 52.694432 46.536015 51.807895 45.479194 51.006756 C 44.149645 50.035163 42.640876 49.549481 40.953372 49.549481 z M 21.547321 49.830601 L 21.547321 63.816827 L 28.834215 63.816827 L 28.834215 62.410195 L 23.106916 62.410195 L 23.106916 49.830601 L 21.547321 49.830601 z M 30.010371 49.830601 L 30.010371 63.816827 L 31.569965 63.816827 L 31.569965 49.830601 L 30.010371 49.830601 z M 50.362617 49.830601 L 50.362617 63.816827 L 51.922211 63.816827 L 51.922211 57.347971 L 58.902147 57.347971 L 58.902147 63.816827 L 60.48758 63.816827 L 60.48758 49.830601 L 58.902147 49.830601 L 58.902147 55.916017 L 51.922211 55.916017 L 51.922211 49.830601 L 50.362617 49.830601 z M 61.689057 49.830601 L 61.689057 51.237233 L 64.885245 51.237233 L 64.885245 63.816827 L 66.419518 63.816827 L 66.419518 51.237233 L 69.564545 51.237233 L 69.564545 49.830601 L 61.689057 49.830601 z " />
  </g>
</svg>
