<?xml version="1.0" encoding="UTF-8" standalone="no"?>
<!-- Created with Inkscape (http://www.inkscape.org/) -->

<svg
   width="210mm"
   height="297mm"
   viewBox="0 0 210 297"
   version="1.1"
   id="svg1"
   inkscape:version="1.4 (1:1.4+202410161351+e7c3feb100)"
   sodipodi:docname="logos.svg"
   xmlns:inkscape="http://www.inkscape.org/namespaces/inkscape"
   xmlns:sodipodi="http://sodipodi.sourceforge.net/DTD/sodipodi-0.dtd"
   xmlns:xlink="http://www.w3.org/1999/xlink"
   xmlns="http://www.w3.org/2000/svg"
   xmlns:svg="http://www.w3.org/2000/svg">
  <sodipodi:namedview
     id="namedview1"
     pagecolor="#ffffff"
     bordercolor="#000000"
     borderopacity="0.25"
     inkscape:showpageshadow="2"
     inkscape:pageopacity="0.0"
     inkscape:pagecheckerboard="0"
     inkscape:deskcolor="#d1d1d1"
     inkscape:document-units="mm"
     inkscape:zoom="0.61476413"
     inkscape:cx="150.46421"
     inkscape:cy="526.21808"
     inkscape:window-width="1920"
     inkscape:window-height="1021"
     inkscape:window-x="0"
     inkscape:window-y="0"
     inkscape:window-maximized="1"
     inkscape:current-layer="layer1" />
  <defs
     id="defs1" />
  <g
     inkscape:label="Layer 1"
     inkscape:groupmode="layer"
     id="layer1">
    <path
       style="fill:#000000;fill-opacity:1;stroke:none;stroke-width:0.499999;stroke-opacity:1;paint-order:markers fill stroke"
       d="m 165.75082,179.53749 c 12.51127,-4.52916 16.23936,-3.69086 30.13282,1.23535 0,0 -0.52237,1.50532 -1.50892,3.38874 -11.16597,-4.03589 -15.88149,-4.05557 -25.29857,-1.45466 -0.26911,-0.19666 -0.88756,-0.46514 -1.85235,-0.89911 -0.50524,-0.22726 -1.59268,1.10805 -2.1087,0.85318 -0.60253,-0.29759 -0.60961,-2.18171 -0.8043,-2.37614 -0.69958,-0.6987 1.44002,-0.74736 1.44002,-0.74736 z"
       id="path27"
       sodipodi:nodetypes="ccccsssc" />
    <text
       xml:space="preserve"
       style="font-size:11.6648px;line-height:0.9;font-family:AnjaliOldLipi;-inkscape-font-specification:AnjaliOldLipi;text-align:start;letter-spacing:0px;writing-mode:lr-tb;direction:ltr;text-anchor:start;fill:#57e389;fill-opacity:1;stroke:#000000;stroke-width:0.5;stroke-dasharray:none;stroke-opacity:1;paint-order:stroke fill markers"
       id="text23"
       transform="translate(-0.61478087,-41.993024)"><textPath
         xlink:href="#circle25"
         id="textPath25"
         style="font-style:normal;font-variant:normal;font-weight:normal;font-stretch:normal;font-family:Ramabhadra;-inkscape-font-specification:Ramabhadra;fill:#57e389;stroke:#000000">Around</textPath></text>
    <circle
       style="fill:#000000;fill-opacity:0;stroke-width:0.499999;paint-order:markers fill stroke"
       id="path1"
       cx="29.315702"
       cy="-248.88536"
       r="17.209009"
       transform="rotate(165.03985)" />
    <text
       xml:space="preserve"
       style="font-size:11.6648px;line-height:0.9;font-family:AnjaliOldLipi;-inkscape-font-specification:AnjaliOldLipi;text-align:start;letter-spacing:0px;writing-mode:lr-tb;direction:ltr;text-anchor:start;fill:#000000;fill-opacity:1;stroke:none;stroke-width:0.499999;paint-order:markers fill stroke"
       id="text1"
       transform="translate(-0.45716335,0.15238778)"><textPath
         xlink:href="#path1"
         id="textPath1"><tspan
           id="tspan1"
           style="font-style:normal;font-variant:normal;font-weight:normal;font-stretch:normal;font-family:NATS;-inkscape-font-specification:NATS;letter-spacing:0px;fill:#000000;fill-opacity:1;stroke:none;stroke-width:0.499999">around</tspan></textPath></text>
    <circle
       style="fill:#1c71d8;fill-opacity:1;stroke:none;stroke-width:0.5;paint-order:markers fill stroke"
       id="circle3"
       cx="35.926987"
       cy="248.0173"
       r="14.689586" />
    <text
       xml:space="preserve"
       style="font-size:14.9179px;line-height:0.9;font-family:AnjaliOldLipi;-inkscape-font-specification:AnjaliOldLipi;text-align:start;letter-spacing:0px;writing-mode:lr-tb;direction:ltr;text-anchor:start;fill:#ffffff;fill-opacity:1;stroke:none;stroke-width:0.499999;paint-order:markers fill stroke"
       x="23.974453"
       y="250.77316"
       id="text3"
       transform="scale(0.99733114,1.002676)"><tspan
         sodipodi:role="line"
         id="tspan3"
         style="font-style:normal;font-variant:normal;font-weight:normal;font-stretch:normal;font-family:NATS;-inkscape-font-specification:NATS;letter-spacing:0px;fill:#ffffff;fill-opacity:1;stroke:#ffffff;stroke-width:0.499999"
         x="23.974453"
         y="250.77316"
         dx="0 0.41519043">LMC</tspan></text>
    <circle
       style="fill:#1c71d8;fill-opacity:1;stroke:none;stroke-width:0.499999;paint-order:markers fill stroke"
       id="circle24"
       cx="32.097118"
       cy="179.81564"
       r="8.2723923" />
    <circle
       style="fill:#f6d32d;fill-opacity:1;stroke:none;stroke-width:0.499999;paint-order:markers fill stroke"
       id="circle23"
       cx="51.579082"
       cy="169.22562"
       r="5.4441905" />
    <circle
       style="fill:#2ec27e;fill-opacity:1;stroke:none;stroke-width:0.499999;paint-order:markers fill stroke"
       id="circle22"
       cx="28.119282"
       cy="162.06836"
       r="3.9592361" />
    <text
       xml:space="preserve"
       style="font-size:24.8012px;line-height:0.9;font-family:AnjaliOldLipi;-inkscape-font-specification:AnjaliOldLipi;text-align:start;letter-spacing:0px;writing-mode:lr-tb;direction:ltr;text-anchor:start;fill:#000000;fill-opacity:1;stroke:none;stroke-width:0.499999;paint-order:markers fill stroke"
       x="150.63008"
       y="75.581177"
       id="text11"><tspan
         sodipodi:role="line"
         id="tspan10"
         style="font-style:normal;font-variant:normal;font-weight:normal;font-stretch:normal;font-family:NATS;-inkscape-font-specification:NATS;letter-spacing:0px;fill:#000000;fill-opacity:1;stroke:none;stroke-width:0.499999"
         x="150.63008"
         y="75.581177"
         dx="0 0 -0.60348362">LMC</tspan></text>
    <text
       xml:space="preserve"
       style="font-size:24.8012px;line-height:0.9;font-family:AnjaliOldLipi;-inkscape-font-specification:AnjaliOldLipi;text-align:start;letter-spacing:0px;writing-mode:lr-tb;direction:ltr;text-anchor:start;fill:#000000;fill-opacity:1;stroke:none;stroke-width:0.499999;paint-order:markers fill stroke"
       x="150.1609"
       y="53.114441"
       id="text2"><tspan
         sodipodi:role="line"
         id="tspan2"
         style="font-style:normal;font-variant:normal;font-weight:normal;font-stretch:normal;font-family:NATS;-inkscape-font-specification:NATS;letter-spacing:0px;fill:#000000;fill-opacity:1;stroke:none;stroke-width:0.499999"
         x="150.1609"
         y="53.114441"
         dx="0 0 -0.60348362">LMC</tspan></text>
    <circle
       style="fill:none;stroke:none;stroke-width:0.499999;paint-order:markers fill stroke"
       id="path2"
       cx="-163.19589"
       cy="-2.3606343"
       r="22.75403"
       transform="rotate(-120)" />
    <circle
       style="fill:#000000;fill-opacity:0;stroke:none;stroke-width:0.499999;paint-order:markers fill stroke"
       id="path3"
       cx="125.88546"
       cy="164.04791"
       r="23.893755" />
    <rect
       style="fill:#000000;fill-opacity:1;stroke:none;stroke-width:0.499999;paint-order:markers fill stroke"
       id="rect3"
       width="21.13497"
       height="4.8969574"
       x="118.20633"
       y="91.811058"
       ry="2.4484763" />
    <text
       xml:space="preserve"
       style="font-size:7.40833px;line-height:0.9;font-family:AnjaliOldLipi;-inkscape-font-specification:AnjaliOldLipi;text-align:start;writing-mode:lr-tb;direction:ltr;text-anchor:start;fill:#000000;fill-opacity:1;stroke:none;stroke-width:0.499999;paint-order:markers fill stroke"
       id="text4"
       transform="translate(-79.131564,-96.605978)"><textPath
         xlink:href="#path3"
         id="textPath4">around around around around around around </textPath></text>
    <text
       xml:space="preserve"
       style="font-style:normal;font-variant:normal;font-weight:normal;font-stretch:normal;font-size:7.40833px;line-height:0.9;font-family:NATS;-inkscape-font-specification:NATS;text-align:start;letter-spacing:0px;writing-mode:lr-tb;direction:ltr;text-anchor:start;fill:#ffffff;fill-opacity:1;stroke:none;stroke-width:0.499999;paint-order:markers fill stroke"
       x="119.07758"
       y="95.863869"
       id="text5"><tspan
         sodipodi:role="line"
         id="tspan4"
         style="fill:#ffffff;fill-opacity:1;stroke-width:0.5"
         x="119.07758"
         y="95.863869">around</tspan></text>
    <circle
       style="fill:#000000;fill-opacity:1;stroke:none;stroke-width:0.499999;paint-order:markers fill stroke"
       id="path5"
       cx="143.25223"
       cy="68.646606"
       r="7.1271391" />
    <text
       xml:space="preserve"
       style="font-style:normal;font-variant:normal;font-weight:normal;font-stretch:normal;font-size:9.15446px;line-height:0.9;font-family:NATS;-inkscape-font-specification:NATS;text-align:start;letter-spacing:0px;writing-mode:lr-tb;direction:ltr;text-anchor:start;fill:#ffffff;fill-opacity:1;stroke:none;stroke-width:0.499999;paint-order:markers fill stroke"
       x="131.16931"
       y="71.085045"
       id="text6"><tspan
         sodipodi:role="line"
         id="tspan5"
         style="fill:#ffffff;fill-opacity:1;stroke-width:0.5"
         x="131.16931"
         y="71.085045">around</tspan></text>
    <text
       xml:space="preserve"
       style="font-style:normal;font-variant:normal;font-weight:normal;font-stretch:normal;font-size:9.15446px;line-height:0.9;font-family:NATS;-inkscape-font-specification:NATS;text-align:start;letter-spacing:0px;writing-mode:lr-tb;direction:ltr;text-anchor:start;fill:#000000;fill-opacity:1;stroke:none;stroke-width:0.499999;paint-order:markers fill stroke"
       x="131.38625"
       y="71.121201"
       id="text7"><tspan
         sodipodi:role="line"
         id="tspan6"
         style="fill:#000000;fill-opacity:1;stroke-width:0.5"
         x="131.38625"
         y="71.121201">a</tspan></text>
    <rect
       style="fill:#ffffff;fill-opacity:1;stroke:none;stroke-width:0.499999;paint-order:markers fill stroke"
       id="rect11"
       width="5.1450524"
       height="4.8434229"
       x="150.74516"
       y="66.69458" />
    <text
       xml:space="preserve"
       style="font-style:normal;font-variant:normal;font-weight:normal;font-stretch:normal;font-size:9.15446px;line-height:0.9;font-family:NATS;-inkscape-font-specification:NATS;text-align:start;letter-spacing:0px;writing-mode:lr-tb;direction:ltr;text-anchor:start;fill:#000000;fill-opacity:1;stroke:none;stroke-width:0.499999;paint-order:markers fill stroke"
       x="150.58531"
       y="71.121201"
       id="text8"><tspan
         sodipodi:role="line"
         id="tspan7"
         style="fill:#000000;fill-opacity:1;stroke-width:0.5"
         x="150.58531"
         y="71.121201">d</tspan></text>
    <text
       xml:space="preserve"
       style="font-size:24.8012px;line-height:0.9;font-family:AnjaliOldLipi;-inkscape-font-specification:AnjaliOldLipi;text-align:start;letter-spacing:0px;writing-mode:lr-tb;direction:ltr;text-anchor:start;fill:#000000;fill-opacity:1;stroke:none;stroke-width:0.499999;paint-order:markers fill stroke"
       x="111.69144"
       y="112.10113"
       id="text9"><tspan
         sodipodi:role="line"
         id="tspan8"
         style="font-style:normal;font-variant:normal;font-weight:normal;font-stretch:normal;font-family:NATS;-inkscape-font-specification:NATS;letter-spacing:0px;fill:#000000;fill-opacity:1;stroke:none;stroke-width:0.499999"
         x="111.69144"
         y="112.10113"
         dx="0 0 -0.60348362">LMC</tspan></text>
    <circle
       style="fill:#000000;fill-opacity:1;stroke:none;stroke-width:0.499999;paint-order:markers fill stroke"
       id="circle9"
       cx="143.25223"
       cy="45.976456"
       r="7.1271391" />
    <text
       xml:space="preserve"
       style="font-style:normal;font-variant:normal;font-weight:normal;font-stretch:normal;font-size:4.78598px;line-height:0.9;font-family:NATS;-inkscape-font-specification:NATS;text-align:start;letter-spacing:0px;writing-mode:lr-tb;direction:ltr;text-anchor:start;fill:#62a0ea;fill-opacity:1;stroke:none;stroke-width:0.499996;paint-order:markers fill stroke"
       x="136.82178"
       y="47.195213"
       id="text10"><tspan
         sodipodi:role="line"
         id="tspan9"
         style="fill:#62a0ea;fill-opacity:1;stroke-width:0.500001"
         x="136.82178"
         y="47.195213">around</tspan></text>
    <text
       xml:space="preserve"
       style="font-size:24.8012px;line-height:0.9;font-family:AnjaliOldLipi;-inkscape-font-specification:AnjaliOldLipi;text-align:start;letter-spacing:0px;writing-mode:lr-tb;direction:ltr;text-anchor:start;fill:#000000;fill-opacity:1;stroke:none;stroke-width:0.499999;paint-order:markers fill stroke"
       x="150.63008"
       y="34.68367"
       id="text12"><tspan
         sodipodi:role="line"
         id="tspan11"
         style="font-style:normal;font-variant:normal;font-weight:normal;font-stretch:normal;font-family:NATS;-inkscape-font-specification:NATS;letter-spacing:0px;fill:#000000;fill-opacity:1;stroke:none;stroke-width:0.499999"
         x="150.63008"
         y="34.68367"
         dx="0 0 -0.60348362">LMC</tspan></text>
    <circle
       style="fill:#000000;fill-opacity:1;stroke:none;stroke-width:0.499999;paint-order:markers fill stroke"
       id="circle12"
       cx="143.25223"
       cy="27.749098"
       r="7.1271391" />
    <rect
       style="fill:#ffffff;fill-opacity:1;stroke:none;stroke-width:0.499999;paint-order:markers fill stroke"
       id="rect14"
       width="24.623331"
       height="4.8434229"
       x="131.26688"
       y="25.797071" />
    <text
       xml:space="preserve"
       style="font-style:normal;font-variant:normal;font-weight:normal;font-stretch:normal;font-size:9.15446px;line-height:0.9;font-family:NATS;-inkscape-font-specification:NATS;text-align:start;letter-spacing:0px;writing-mode:lr-tb;direction:ltr;text-anchor:start;fill:#000000;fill-opacity:1;stroke:none;stroke-width:0.499999;paint-order:markers fill stroke"
       x="131.16931"
       y="30.187536"
       id="text13"><tspan
         sodipodi:role="line"
         id="tspan12"
         style="fill:#000000;fill-opacity:1;stroke-width:0.5"
         x="131.16931"
         y="30.187536">around</tspan></text>
    <text
       xml:space="preserve"
       style="font-size:24.8012px;line-height:0.9;font-family:AnjaliOldLipi;-inkscape-font-specification:AnjaliOldLipi;text-align:start;letter-spacing:0px;writing-mode:lr-tb;direction:ltr;text-anchor:start;fill:#000000;fill-opacity:1;stroke:none;stroke-width:0.499999;paint-order:markers fill stroke"
       x="118.14197"
       y="154.83629"
       id="text15"><tspan
         sodipodi:role="line"
         id="tspan15"
         style="font-style:normal;font-variant:normal;font-weight:normal;font-stretch:normal;font-family:NATS;-inkscape-font-specification:NATS;letter-spacing:0px;fill:#000000;fill-opacity:1;stroke:none;stroke-width:0.499999"
         x="118.14197"
         y="154.83629"
         dx="0 0 -0.60348362">LMC</tspan></text>
    <circle
       style="fill:#2ec27e;fill-opacity:1;stroke:none;stroke-width:0.499999;paint-order:markers fill stroke"
       id="circle15"
       cx="98.556938"
       cy="147.76961"
       r="7.1271391" />
    <circle
       style="fill:#f6d32d;fill-opacity:1;stroke:none;stroke-width:0.499999;paint-order:markers fill stroke"
       id="circle16"
       cx="83.071312"
       cy="147.76961"
       r="7.1271391" />
    <circle
       style="fill:#1c71d8;fill-opacity:1;stroke:none;stroke-width:0.499999;paint-order:markers fill stroke"
       id="circle17"
       cx="67.933678"
       cy="147.76961"
       r="7.1271391" />
    <text
       xml:space="preserve"
       style="font-size:12.9349px;line-height:0.9;font-family:AnjaliOldLipi;-inkscape-font-specification:AnjaliOldLipi;text-align:start;letter-spacing:0px;writing-mode:lr-tb;direction:ltr;text-anchor:start;fill:#ffffff;fill-opacity:1;stroke:none;stroke-width:0.499999;paint-order:markers fill stroke"
       x="65.260017"
       y="151.22318"
       id="text17"><tspan
         sodipodi:role="line"
         id="tspan17"
         style="font-style:normal;font-variant:normal;font-weight:normal;font-stretch:normal;font-family:NATS;-inkscape-font-specification:NATS;letter-spacing:0px;fill:#ffffff;fill-opacity:1;stroke:none;stroke-width:0.499999"
         x="65.260017"
         y="151.22318"
         dx="0">L</tspan></text>
    <text
       xml:space="preserve"
       style="font-size:12.9349px;line-height:0.9;font-family:AnjaliOldLipi;-inkscape-font-specification:AnjaliOldLipi;text-align:start;letter-spacing:0px;writing-mode:lr-tb;direction:ltr;text-anchor:start;fill:#ffffff;fill-opacity:1;stroke:none;stroke-width:0.499999;paint-order:markers fill stroke"
       x="78.550766"
       y="151.22318"
       id="text18"><tspan
         sodipodi:role="line"
         id="tspan18"
         style="font-style:normal;font-variant:normal;font-weight:normal;font-stretch:normal;font-family:NATS;-inkscape-font-specification:NATS;letter-spacing:0px;fill:#ffffff;fill-opacity:1;stroke:none;stroke-width:0.499999"
         x="78.550766"
         y="151.22318">M</tspan></text>
    <text
       xml:space="preserve"
       style="font-size:12.9349px;line-height:0.9;font-family:AnjaliOldLipi;-inkscape-font-specification:AnjaliOldLipi;text-align:start;letter-spacing:0px;writing-mode:lr-tb;direction:ltr;text-anchor:start;fill:#ffffff;fill-opacity:1;stroke:none;stroke-width:0.499999;paint-order:markers fill stroke"
       x="94.549789"
       y="151.22318"
       id="text19"><tspan
         sodipodi:role="line"
         id="tspan19"
         style="font-style:normal;font-variant:normal;font-weight:normal;font-stretch:normal;font-family:NATS;-inkscape-font-specification:NATS;letter-spacing:0px;fill:#ffffff;fill-opacity:1;stroke:none;stroke-width:0.499999"
         x="94.549789"
         y="151.22318">C</tspan></text>
    <text
       xml:space="preserve"
       style="font-size:13.8929px;line-height:0.9;font-family:AnjaliOldLipi;-inkscape-font-specification:AnjaliOldLipi;text-align:start;letter-spacing:0px;writing-mode:lr-tb;direction:ltr;text-anchor:start;fill:#000000;fill-opacity:1;stroke:none;stroke-width:0.499999;paint-order:markers fill stroke"
       x="64.313019"
       y="138.93483"
       id="text20"><tspan
         sodipodi:role="line"
         id="tspan20"
         style="font-style:normal;font-variant:normal;font-weight:normal;font-stretch:normal;font-family:NATS;-inkscape-font-specification:NATS;letter-spacing:0px;fill:#000000;fill-opacity:1;stroke:none;stroke-width:0.499999"
         x="64.313019"
         y="138.93483">around</tspan></text>
    <text
       xml:space="preserve"
       style="font-size:11.6648px;line-height:0.9;font-family:AnjaliOldLipi;-inkscape-font-specification:AnjaliOldLipi;text-align:start;letter-spacing:0px;writing-mode:lr-tb;direction:ltr;text-anchor:start;fill:#000000;fill-opacity:1;stroke:none;stroke-width:0.499999;paint-order:markers fill stroke"
       x="24.656788"
       y="167.3485"
       id="text21"><tspan
         sodipodi:role="line"
         id="tspan21"
         style="font-style:normal;font-variant:normal;font-weight:normal;font-stretch:normal;font-family:NATS;-inkscape-font-specification:NATS;letter-spacing:0px;fill:#000000;fill-opacity:1;stroke:none;stroke-width:0.499999"
         x="24.656788"
         y="167.3485">around</tspan></text>
    <text
       xml:space="preserve"
       style="font-size:19.4542px;line-height:0.9;font-family:AnjaliOldLipi;-inkscape-font-specification:AnjaliOldLipi;text-align:start;letter-spacing:0px;writing-mode:lr-tb;direction:ltr;text-anchor:start;fill:#000000;fill-opacity:1;stroke:none;stroke-width:0.499999;paint-order:markers fill stroke"
       x="23.814236"
       y="179.61566"
       id="text22"><tspan
         sodipodi:role="line"
         id="tspan22"
         style="font-style:normal;font-variant:normal;font-weight:normal;font-stretch:normal;font-family:NATS;-inkscape-font-specification:NATS;letter-spacing:0px;fill:#000000;fill-opacity:1;stroke:none;stroke-width:0.499999"
         x="23.814236"
         y="179.61566">LMC</tspan></text>
    <path
       style="fill:#000000;fill-opacity:1;stroke:none;stroke-width:0.499999;paint-order:markers fill stroke"
       d="m 137.91647,92.034696 0.45508,0.27204 v -1.6054 h -0.45508 z"
       id="path24"
       sodipodi:nodetypes="ccccc" />
    <text
       xml:space="preserve"
       style="font-size:24.8012px;line-height:0.9;font-family:AnjaliOldLipi;-inkscape-font-specification:AnjaliOldLipi;text-align:start;letter-spacing:0px;writing-mode:lr-tb;direction:ltr;text-anchor:start;fill:#000000;fill-opacity:1;stroke:none;stroke-width:0.499999;paint-order:markers fill stroke"
       x="158.71048"
       y="116.5237"
       id="text25"><tspan
         sodipodi:role="line"
         id="tspan25"
         style="font-style:normal;font-variant:normal;font-weight:normal;font-stretch:normal;font-family:NATS;-inkscape-font-specification:NATS;letter-spacing:0px;fill:#000000;fill-opacity:1;stroke:none;stroke-width:0.499999"
         x="158.71048"
         y="116.5237"
         dx="0 0 -0.60348362">LMC</tspan></text>
    <rect
       style="fill:#ffffff;fill-opacity:1;stroke:none;stroke-width:0.499999;paint-order:markers fill stroke"
       id="rect25"
       width="18.545126"
       height="4.4336586"
       x="165.71407"
       y="107.38134"
       ry="0" />
    <text
       xml:space="preserve"
       style="font-style:normal;font-variant:normal;font-weight:normal;font-stretch:normal;font-size:5.70117px;line-height:0.9;font-family:NATS;-inkscape-font-specification:NATS;text-align:start;letter-spacing:0px;writing-mode:lr-tb;direction:ltr;text-anchor:start;fill:#000000;fill-opacity:1;stroke:none;stroke-width:0.499999;paint-order:markers fill stroke"
       x="168.39621"
       y="111.11346"
       id="text26"><tspan
         sodipodi:role="line"
         id="tspan26"
         style="fill:#000000;fill-opacity:1;stroke-width:0.5"
         x="168.39621"
         y="111.11346">around</tspan></text>
    <circle
       style="fill:#ffffff;fill-opacity:0.2610063;stroke:none;stroke-width:0.500001;paint-order:markers fill stroke"
       id="circle25"
       cx="-309.39334"
       cy="8.8557682"
       r="28.123671"
       transform="rotate(-124.04769)" />
    <text
       xml:space="preserve"
       style="font-size:19.4542px;line-height:0.9;font-family:AnjaliOldLipi;-inkscape-font-specification:AnjaliOldLipi;text-align:start;letter-spacing:0px;writing-mode:lr-tb;direction:ltr;text-anchor:start;fill:#000000;fill-opacity:1;stroke:none;stroke-width:0.499999;paint-order:markers fill stroke"
       x="168.71902"
       y="151.61874"
       id="text27"><tspan
         sodipodi:role="line"
         id="tspan27"
         style="font-style:normal;font-variant:normal;font-weight:normal;font-stretch:normal;font-family:NATS;-inkscape-font-specification:NATS;letter-spacing:0px;fill:#000000;fill-opacity:1;stroke:none;stroke-width:0.499999"
         x="168.71902"
         y="151.61874">LMC</tspan></text>
    <text
       xml:space="preserve"
       style="font-size:13.7502px;line-height:0.9;font-family:AnjaliOldLipi;-inkscape-font-specification:AnjaliOldLipi;text-align:start;letter-spacing:0px;writing-mode:lr-tb;direction:ltr;text-anchor:start;fill:#57e389;fill-opacity:1;stroke:#000000;stroke-width:0.499998;stroke-opacity:1;paint-order:stroke fill markers"
       x="167.62192"
       y="197.60057"
       id="text16"
       transform="scale(1.0002572,0.99974287)"><tspan
         sodipodi:role="line"
         id="tspan16"
         style="font-style:normal;font-variant:normal;font-weight:normal;font-stretch:normal;font-family:'Lilita One';-inkscape-font-specification:'Lilita One';letter-spacing:0px;fill:#57e389;fill-opacity:1;stroke:#000000;stroke-width:0.499998;stroke-opacity:1;paint-order:stroke fill markers"
         x="167.62192"
         y="197.60057">LMC</tspan></text>
    <g
       id="g2"
       transform="translate(-22.399652,4.7157163)">
      <text
         xml:space="preserve"
         style="font-size:28.8803px;line-height:0.9;font-family:AnjaliOldLipi;-inkscape-font-specification:AnjaliOldLipi;text-align:start;letter-spacing:0px;writing-mode:lr-tb;direction:ltr;text-anchor:start;fill:#3584e4;fill-opacity:1;stroke:none;stroke-width:0.499997;stroke-opacity:1;paint-order:stroke fill markers"
         x="115.98856"
         y="285.08914"
         id="text30"
         transform="scale(1.0002572,0.99974286)"><tspan
           sodipodi:role="line"
           id="tspan30"
           style="font-style:normal;font-variant:normal;font-weight:normal;font-stretch:normal;font-family:'Lilita One';-inkscape-font-specification:'Lilita One';letter-spacing:0px;fill:#3584e4;fill-opacity:1;stroke:none;stroke-width:0.499997;stroke-opacity:1;paint-order:stroke fill markers"
           x="115.98856"
           y="285.08914">LMC</tspan></text>
      <text
         xml:space="preserve"
         style="font-size:13.7502px;line-height:0.9;font-family:AnjaliOldLipi;-inkscape-font-specification:AnjaliOldLipi;text-align:start;letter-spacing:0px;writing-mode:lr-tb;direction:ltr;text-anchor:start;fill:#33d17a;fill-opacity:1;stroke:none;stroke-width:0;stroke-dasharray:none;stroke-opacity:1;paint-order:stroke fill markers"
         x="117.17638"
         y="264.67685"
         id="text31"
         transform="scale(1.0002572,0.99974287)"><tspan
           sodipodi:role="line"
           id="tspan31"
           style="font-style:normal;font-variant:normal;font-weight:normal;font-stretch:normal;font-family:'Lilita One';-inkscape-font-specification:'Lilita One';letter-spacing:0px;fill:#33d17a;fill-opacity:1;stroke:none;stroke-width:0;stroke-dasharray:none;stroke-opacity:1;paint-order:stroke fill markers"
           x="117.17638"
           y="264.67685">AROUND</tspan></text>
      <path
         style="fill:none;fill-opacity:1;stroke:#ffffff;stroke-width:2;stroke-dasharray:none;stroke-opacity:1;paint-order:stroke fill markers"
         d="m 113.39436,266.47313 c 23.57849,-5.94903 30.97851,2.17648 59.85308,-2.24902"
         id="path31"
         sodipodi:nodetypes="cc" />
    </g>
    <g
       id="g1"
       transform="translate(-61.304311,8.6454797)">
      <path
         id="text33"
         style="font-size:28.8803px;line-height:0.9;font-family:'Lilita One';-inkscape-font-specification:'Lilita One';letter-spacing:0px;fill:#3584e4;stroke-width:0.499997;paint-order:stroke fill markers"
         d="m 229.60083,262.44889 c -0.11364,0.0793 -0.1803,0.16766 -0.1803,0.2693 l -0.66388,18.77216 c -0.0192,0.34656 0.43303,0.58733 1.3572,0.7221 0.44283,0.0577 0.89511,0.0868 1.35719,0.0868 0.48134,0 1.07826,-0.0485 1.79064,-0.14473 0.71237,-0.11552 1.07806,-0.31752 1.09733,-0.60632 l 0.40452,-11.52319 3.63863,11.86951 c 0.0385,0.21179 0.67415,0.31789 1.90637,0.31789 1.23223,0 1.88671,-0.11528 1.96372,-0.34632 l 3.52343,-11.72581 0.60652,11.58108 c 0,0.38507 0.85668,0.57789 2.57024,0.57789 0.57761,0 1.24228,-0.0485 1.99317,-0.14473 0.75088,-0.0963 1.12625,-0.25032 1.12625,-0.46211 l -0.79096,-17.89188 c -2.94474,-0.0927 -5.65315,-0.28995 -8.23562,-0.50862 l -2.66995,8.61047 -3.23463,-9.09739 c -0.002,-0.006 -0.007,-0.0112 -0.01,-0.0171 -2.49553,-0.19552 -4.97017,-0.33731 -7.55005,-0.33908 z m -7.83368,0.46624 c -1.84513,0.22339 -3.78973,0.54083 -5.86222,0.97021 v 16.68079 c 0,0.44284 0.12478,0.83765 0.37508,1.18422 0.2503,0.34656 0.58747,0.52 1.01104,0.52 h 8.89485 c 0.34656,0 0.59715,-0.46216 0.75118,-1.38632 0.0577,-0.48134 0.0863,-0.95318 0.0863,-1.41527 0,-0.46208 -0.0285,-0.91454 -0.0863,-1.35737 -0.13477,-0.90491 -0.37569,-1.35737 -0.72225,-1.35737 h -4.44768 z m 46.27106,0.10183 c -3.79458,0.46112 -7.21835,0.70724 -10.34503,0.79705 -0.27759,0.24135 -0.54915,0.49679 -0.80749,0.78155 -1.67506,1.86759 -2.51238,4.43797 -2.51238,7.71107 0,3.25385 0.81796,5.77577 2.45451,7.56635 1.63655,1.79058 3.72579,2.68579 6.26726,2.68579 1.57879,0 2.94581,-0.22138 4.10102,-0.66421 1.15521,-0.44283 1.73278,-1.03964 1.73278,-1.79053 0,-0.38507 -0.13497,-0.92425 -0.40452,-1.61737 -0.26955,-0.71238 -0.56802,-1.28012 -0.89532,-1.7037 -0.30806,-0.44283 -0.51942,-0.66421 -0.63494,-0.66421 -0.1155,0 -0.19292,0.0194 -0.23145,0.0579 -0.23104,0.23104 -0.62577,0.41366 -1.18412,0.54843 -0.5391,0.11553 -1.02957,0.17316 -1.4724,0.17316 -1.0782,0 -1.97358,-0.39429 -2.68597,-1.18369 -0.69313,-0.7894 -1.03998,-1.99272 -1.03998,-3.61001 0,-1.63656 0.33718,-2.84957 1.01105,-3.63896 0.69313,-0.78939 1.59819,-1.18421 2.7149,-1.18421 0.32731,0 0.71236,0.0673 1.15519,0.20211 0.46208,0.11552 0.75087,0.23131 0.86639,0.34683 0.13478,0.0963 0.24987,0.14422 0.34614,0.14422 0.34656,0 0.77032,-0.49123 1.27091,-1.47316 0.51985,-1.00119 0.7796,-1.83876 0.7796,-2.51264 0,-0.36737 -0.16571,-0.69023 -0.48615,-0.97176 z"
         transform="scale(1.0002572,0.99974286)" />
      <path
         id="text34"
         style="font-size:13.7502px;line-height:0.9;font-family:'Lilita One';-inkscape-font-specification:'Lilita One';letter-spacing:0px;fill:#33d17a;stroke-width:0;paint-order:stroke fill markers"
         d="m 237.869,249.99166 c -1.29251,0 -2.35124,0.41723 -3.17625,1.25141 -0.81585,0.83417 -1.2239,4.17964 -1.2239,5.80217 0,1.5423 0.37306,2.72849 1.11024,3.56711 1.86372,0.10799 3.70597,0.25484 5.56825,0.41765 0.17043,0.0149 0.34576,0.03 0.51664,0.045 0.11243,-0.0902 0.22139,-0.18604 0.32599,-0.28946 0.81585,-0.81584 1.2239,-2.05368 1.2239,-3.71287 0,-1.66836 -0.399,-5.02769 -1.19652,-5.84353 -0.79751,-0.82501 -1.84666,-1.23745 -3.14835,-1.23745 z m 15.16623,0.6394 c -0.72418,0 -1.08647,0.0687 -1.08647,0.20624 v 10.78662 c 0,0.10403 0.18754,0.17142 0.52283,0.20986 0.41845,0.009 0.83505,0.0192 1.26368,0.0233 0.50163,-0.0295 0.75738,-0.10656 0.75738,-0.23312 v -4.27629 l 2.29643,4.29024 c 0.0503,0.0943 0.30027,0.15389 0.72173,0.1835 0.55122,-0.0152 1.1169,-0.0379 1.6868,-0.0631 0.18409,-0.0478 0.28622,-0.11417 0.28622,-0.20314 v -10.11982 c 0,-0.17417 -0.4561,-0.31096 -1.27867,-0.40083 -0.84747,-0.0926 -1.27866,-0.14282 -1.27866,0.0313 v 5.21647 l -2.19982,-5.29355 c -0.0825,-0.13753 -0.31657,-0.22919 -0.70158,-0.27499 -0.37583,-0.055 -0.70569,-0.0827 -0.98987,-0.0827 z m -26.89531,0.54326 c -0.33728,0.0359 -0.50889,1.219 -0.50889,1.53984 v 7.85012 c 0.89455,-0.0518 1.76563,-0.0795 2.62656,-0.0956 v -1.92441 h 0.42622 l 0.82041,1.91097 c 1.1199,-10e-4 2.2187,0.0227 3.30283,0.0662 l -1.68939,-2.81605 c 0.40334,-0.27501 0.71459,-0.64162 0.93459,-1.09996 0.22,-0.46751 0.33012,-0.98545 0.33012,-1.55379 0,-1.8792 -1.21908,-4.41191 -3.61642,-4.15675 z m 23.15542,-0.89161 c -0.99002,0 -1.48532,0.0402 -1.48532,0.22355 v 7.68753 c 0,0.20167 -0.0915,0.35248 -0.27485,0.45332 -0.17416,0.10083 -0.37102,0.15145 -0.59102,0.15145 -0.22001,0 -0.43121,-0.0549 -0.63288,-0.16489 -0.1925,-0.11 -0.28879,-0.25654 -0.28879,-0.43988 v -7.86165 c 0,-0.18334 -0.49957,-0.27499 -1.49875,-0.27499 -0.99001,0 -1.4848,0.0916 -1.4848,0.27499 v 8.28085 c 0,1.03585 0.36656,1.86073 1.09991,2.4749 0.14628,0.1192 0.30351,0.22322 0.46652,0.31893 1.36584,0.10936 2.77163,0.20449 4.22243,0.28223 0.36364,-0.14221 0.68628,-0.33162 0.96248,-0.57376 0.66917,-0.59584 1.00382,-1.36104 1.00382,-2.29606 v -8.18952 c 0,-0.18334 -0.49957,-0.347 -1.49875,-0.347 z m 12.18268,1.42092 c -0.18332,0.003 -0.33495,0.0687 -0.45412,0.20624 -0.11,0.12834 -0.1648,0.83615 -0.1648,1.06532 v 8.2502 c 0,0.18811 0.049,0.33207 0.14207,0.43626 1.73121,-0.10627 3.54376,-0.2572 5.46803,-0.47038 1.17143,-0.77915 1.76016,-2.24159 1.76016,-4.39362 0,-1.5767 -0.38039,-2.73143 -1.14124,-3.46477 -0.75168,-0.73334 -1.78274,-1.32973 -3.32202,-1.55511 -1.28347,-0.18792 -2.28808,-0.0741 -2.28808,-0.0741 z m -41.00818,0.29012 c -1.24046,0.19609 -1.91304,0.4652 -1.91304,0.5385 l -2.41319,9.13298 c 0,0.0207 0.0796,0.052 0.19942,0.0884 0.83337,-0.16267 1.64251,-0.30304 2.4385,-0.4311 l 0.37353,-1.59617 2.07159,-0.35181 c 0,0 0.24682,0.97228 0.41961,1.54532 0.76047,-0.0149 1.89789,-0.20311 2.81409,-0.2724 l -2.14422,-8.40251 c -0.0181,-0.071 -0.78445,-0.41906 -1.84629,-0.25121 z m 7.78775,2.14339 h 0.2888 c 0.385,0 0.65953,0.0826 0.82454,0.24759 0.17417,0.15584 0.26141,0.92812 0.26141,1.25813 0,0.72418 -0.43519,1.086 -1.30604,1.086 h -0.0687 z m 9.58351,-0.97591 c 0.44001,0 0.80709,0.19716 1.10043,0.59133 0.3025,0.39417 0.4308,2.5462 0.4536,3.2792 0.0138,0.4435 -0.14683,0.76782 -0.44017,1.16199 -0.28417,0.39417 -0.65978,0.59081 -1.12729,0.59081 -0.45834,0 -0.82969,-0.19237 -1.11386,-0.57737 -0.28417,-0.39417 -0.41242,-0.83793 -0.42622,-1.14803 -0.0326,-0.73262 0.14631,-2.88982 0.43965,-3.29316 0.3025,-0.40334 0.67386,-0.60477 1.11386,-0.60477 z m 25.65799,1.68406 h 0.13742 c 0.58667,0 1.01282,0.13269 1.27866,0.39852 0.275,0.26584 0.41279,0.83867 0.41279,1.71869 0,0.87084 -0.133,1.49429 -0.39884,1.87013 -0.25667,0.37583 -0.63706,0.56394 -1.14124,0.56394 -0.13753,0 -0.22,-0.023 -0.24746,-0.0688 -0.0275,-0.055 -0.0413,-0.17863 -0.0413,-0.37113 z m -43.25807,0.28894 h 0.0827 l 0.5398,2.61736 -1.36486,0.22868 z"
         transform="scale(1.0002572,0.99974287)"
         sodipodi:nodetypes="scscsccscssssccsccccsssscccsssscccccccsssssscscsssssccccssssscsccscsssscsccccccccsscccscscscscscscscscscccccccccc" />
    </g>
  </g>
</svg>
