<?xml version="1.0" encoding="UTF-8" standalone="no"?>
<!-- Created with Inkscape (http://www.inkscape.org/) -->

<svg
   width="1024"
   height="1024"
   viewBox="0 0 270.93333 270.93333"
   version="1.1"
   id="svg1"
   xml:space="preserve"
   inkscape:version="1.4 (1:1.4+202410161351+e7c3feb100)"
   sodipodi:docname="step_and_repeat.svg"
   inkscape:export-filename="step_and_repeat.png"
   inkscape:export-xdpi="96"
   inkscape:export-ydpi="96"
   xmlns:inkscape="http://www.inkscape.org/namespaces/inkscape"
   xmlns:sodipodi="http://sodipodi.sourceforge.net/DTD/sodipodi-0.dtd"
   xmlns="http://www.w3.org/2000/svg"
   xmlns:svg="http://www.w3.org/2000/svg"><sodipodi:namedview
     id="namedview1"
     pagecolor="#ffffff"
     bordercolor="#000000"
     borderopacity="0.25"
     inkscape:showpageshadow="2"
     inkscape:pageopacity="0.0"
     inkscape:pagecheckerboard="0"
     inkscape:deskcolor="#d1d1d1"
     inkscape:document-units="px"
     inkscape:zoom="0.71505412"
     inkscape:cx="371.99981"
     inkscape:cy="511.15012"
     inkscape:window-width="1920"
     inkscape:window-height="1021"
     inkscape:window-x="0"
     inkscape:window-y="0"
     inkscape:window-maximized="1"
     inkscape:current-layer="layer1"
     inkscape:export-bgcolor="#ffffffff" /><defs
     id="defs1" /><g
     inkscape:label="Layer 1"
     inkscape:groupmode="layer"
     id="layer1"><path
       style="fill:#000000"
       d="m 68.65997,236.17723 -11.464436,-11.46443 2.160538,-2.15047 2.160537,-2.15047 8.952716,1.95436 c 7.784122,1.69927 8.947031,1.91776 8.909162,1.67385 -0.02395,-0.15429 -0.897616,-4.18887 -1.94147,-8.96574 l -1.897918,-8.68521 2.150533,-2.16048 2.150532,-2.16047 11.464435,11.46443 11.464441,11.46444 -1.98918,1.98917 -1.989176,1.98918 -8.290918,-8.24251 -8.290917,-8.2425 1.765538,8.94092 c 0.971046,4.9175 1.766298,9.03839 1.767227,9.15752 0.0013,0.16231 -2.249531,-0.2295 -8.978693,-1.56297 l -8.980381,-1.77958 8.160105,8.20853 8.160105,8.20852 -1.989173,1.98917 -1.989172,1.98918 z m 26.718767,-26.71877 -11.464435,-11.46443 8.479893,-8.47989 8.479895,-8.4799 1.75283,1.75283 1.75282,1.75283 -6.490196,6.49019 -6.490197,6.4902 3.07929,3.07929 3.079291,3.07929 5.779592,-5.77959 5.77959,-5.77959 1.75283,1.75283 1.75283,1.75282 -5.77959,5.77959 -5.7796,5.7796 3.12667,3.12666 3.12666,3.12666 6.58495,-6.58494 6.58494,-6.58494 1.75283,1.75282 1.75283,1.75283 -8.57464,8.57464 -8.57464,8.57464 z m 21.274143,-21.36219 -11.52957,-11.52957 5.1314,-5.05394 c 4.36861,-4.30267 5.282,-5.15562 6.14447,-5.73788 7.4745,-5.04607 16.22904,-3.98872 21.87063,2.6415 4.43101,5.20748 5.05982,12.33958 1.62029,18.37753 -1.14714,2.01374 -1.5135,2.43608 -6.71178,7.73721 l -4.99587,5.09472 z m 17.0043,-1.3767 c 1.45712,-1.72353 2.22699,-3.14732 2.71069,-5.01315 0.30067,-1.15979 0.28399,-3.67489 -0.0323,-4.86707 -0.56935,-2.14621 -2.2314,-4.6448 -4.05502,-6.09599 -1.31881,-1.04947 -2.17373,-1.52777 -3.63698,-2.03479 -2.27279,-0.78751 -4.35632,-0.78526 -6.64216,0.007 -2.30774,0.80004 -3.63844,1.79581 -6.991,5.23141 l -2.29291,2.34971 7.74481,7.79376 c 4.25965,4.28657 7.81844,7.82672 7.90843,7.86701 0.20306,0.0909 3.76486,-3.43833 5.28642,-5.23807 z m 7.95829,-23.49784 -11.46443,-11.46443 1.94232,-1.94233 1.94232,-1.94232 11.46444,11.46444 11.46443,11.46443 -1.94232,1.94232 -1.94232,1.94233 z m 19.44703,3.33997 c -0.0411,-0.0411 -2.97921,-7.48661 -6.52916,-16.5456 l -6.45445,-16.47089 1.81873,-1.87001 1.81874,-1.87 16.44372,6.44167 c 9.04404,3.54292 16.51945,6.47418 16.61202,6.51392 0.13362,0.0573 -0.27072,0.50075 -1.96181,2.15131 l -2.13012,2.07906 -3.86387,-1.58212 -3.86386,-1.58212 -4.08414,4.03478 -4.08414,4.03477 -0.59779,-2.86049 -0.59779,-2.86049 2.18333,-2.18334 c 1.20084,-1.20083 2.16291,-2.20376 2.13795,-2.22872 -0.0878,-0.0878 -13.00514,-5.19227 -13.15386,-5.19791 -0.0828,-0.003 0.69028,2.0804 1.71799,4.6301 1.02771,2.54969 3.38907,8.4022 5.24746,13.00558 l 3.37889,8.36979 -1.98157,2.03271 c -1.08986,1.11799 -2.01518,1.99909 -2.05627,1.958 z m 36.48202,-37.29716 c -2.24205,1.57198 -5.01041,1.81366 -7.4086,0.64678 l -0.8625,-0.41966 -26.00816,-26.00817 -26.00817,-26.008158 -0.41966,-0.8625 c -2.03673,-4.185912 0.42647,-9.253237 4.91824,-10.117882 0.93477,-0.179938 56.56305,-7.234584 58.35736,-7.400741 0.9788,-0.09064 2.42257,0.175583 3.44984,0.636128 0.93328,0.418404 2.37504,1.67728 2.98414,2.6056 0.628,0.957121 1.09877,2.511134 1.10327,3.64187 0.004,0.993443 -6.99638,56.874543 -7.37923,58.905673 -0.32767,1.73839 -1.38845,3.44288 -2.72653,4.38106 z m 29.32229,-29.31056 c -2.32111,1.62048 -5.26844,1.81452 -7.66713,0.50477 -0.35632,-0.19456 -1.09016,-0.739806 -1.63076,-1.211659 l -0.98292,-0.857915 2.9245,-23.105701 c 1.60848,-12.708135 2.9217,-23.510877 2.91827,-24.006093 -0.009,-1.232512 -0.61818,-2.9772 -1.42131,-4.067509 -1.13662,-1.54305 -2.92908,-2.575392 -4.95827,-2.85565 -0.61866,-0.08544 -6.90275,0.651882 -24.26242,2.84677 l -23.42752,2.962081 -0.85775,-0.983079 c -1.40415,-1.6093 -2.04339,-3.078885 -2.0797,-4.781099 -0.068,-3.188145 1.81455,-5.970369 4.69149,-6.933566 0.7966,-0.266699 8.4376,-1.28903 30.0004,-4.013918 15.91237,-2.010844 29.25112,-3.667237 29.64166,-3.680875 3.89229,-0.135918 7.3613,3.333097 7.2223,7.222295 -0.0563,1.57444 -7.36309,58.639823 -7.61168,59.446377 -0.14733,0.478002 -0.39498,1.083084 -0.55033,1.344626 -0.42997,0.723902 -1.35881,1.758228 -1.94883,2.170145 z m -86.25659,33.92627 c -5.38158,4.15891 -12.11378,5.88893 -18.70775,4.80745 -2.91637,-0.47832 -6.66164,-1.9689 -9.25098,-3.68181 -5.55528,-3.67494 -9.65795,-9.67037 -10.87467,-15.8917 -1.38234,-7.06818 0.34826,-14.00457 4.97362,-19.93472 0.89768,-1.150903 3.64738,-3.900993 4.88164,-4.882319 4.18388,-3.326505 8.65754,-5.016946 13.51899,-5.108361 1.96572,-0.03696 4.61908,0.173548 4.71953,0.374436 0.03,0.06002 -0.29109,2.824956 -0.71356,6.144303 l -0.76812,6.035171 -1.01065,-0.0502 c -3.1786,-0.15775 -5.43079,0.28359 -7.62972,1.49511 -0.82857,0.4565 -1.18423,0.74995 -2.4831,2.04872 -1.66953,1.6694 -2.17235,2.43662 -2.77321,4.23142 -1.52946,4.5686 0.33982,10.12462 4.57119,13.58684 4.02264,3.29145 8.39634,4.12012 12.4892,2.3663 2.32565,-0.99656 4.63154,-3.19757 5.8774,-5.61008 0.96752,-1.87353 1.41513,-4.36444 1.22897,-6.83912 -0.0587,-0.78024 -0.0401,-1.45419 0.0413,-1.49767 0.0814,-0.0435 2.73817,-0.51243 5.90396,-1.0421 4.51707,-0.75576 5.76967,-0.91522 5.81956,-0.74085 0.16399,0.57314 0.36682,3.19623 0.36682,4.74383 0,5.23845 -1.58615,9.80432 -4.89432,14.08875 -1.06705,1.38195 -4.03603,4.3905 -5.28607,5.35655 z m -104.069619,69.79862 -16.675542,-16.67554 4.595249,-4.59525 4.595249,-4.59525 12.648778,12.64878 12.648778,12.64878 8.148276,-8.14828 8.148277,-8.14827 4.026765,4.02676 4.026764,4.02676 -12.743526,12.74353 -12.743525,12.74353 z m 31.456138,-31.45613 -16.675542,-16.67555 4.868074,-4.86807 4.868073,-4.86807 10.409123,2.47488 c 5.725018,1.36118 10.435647,2.44909 10.468066,2.41758 0.03242,-0.0315 -1.054158,-4.74218 -2.414613,-10.46815 l -2.473555,-10.41084 4.902554,-4.9038 4.902554,-4.9038 16.675547,16.67554 16.67554,16.67554 -4.59525,4.59525 -4.59525,4.59525 -9.57508,-9.57508 c -5.546022,-5.54602 -9.588586,-9.51786 -9.607179,-9.4391 -0.01766,0.0748 0.9809,4.96508 2.219013,10.86731 1.238113,5.90224 2.22455,10.7569 2.192082,10.78814 -0.03247,0.0312 -4.79791,-0.9379 -10.589873,-2.15365 -5.791962,-1.21575 -10.65048,-2.21568 -10.796706,-2.22207 -0.22255,-0.01 1.288807,1.54306 9.276551,9.53081 l 9.542417,9.54241 -4.500502,4.50051 -4.500502,4.5005 z"
       id="path17" /></g></svg>
